<svg xmlns="http://www.w3.org/2000/svg" width="900" height="320" viewBox="0 0 900 320">
<defs>
  <linearGradient id="gbg" x1="0" y1="0" x2="900" y2="320" gradientUnits="userSpaceOnUse">
    <stop offset="0%" stop-color="#09081a"/>
    <stop offset="100%" stop-color="#0d0b1e"/>
  </linearGradient>
  <linearGradient id="gtok" x1="24" y1="0" x2="224" y2="0" gradientUnits="userSpaceOnUse">
    <stop offset="0%" stop-color="#d4d4ff"/>
    <stop offset="100%" stop-color="#a5b4fc"/>
  </linearGradient>
  <linearGradient id="gcost" x1="268" y1="0" x2="438" y2="0" gradientUnits="userSpaceOnUse">
    <stop offset="0%" stop-color="#a5b4fc"/>
    <stop offset="100%" stop-color="#6366f1"/>
  </linearGradient>
  <linearGradient id="gmodel" x1="472" y1="0" x2="558" y2="0" gradientUnits="userSpaceOnUse">
    <stop offset="0%" stop-color="#a5b4fc"/>
    <stop offset="100%" stop-color="#818cf8"/>
  </linearGradient>
  <linearGradient id="gdiv" x1="0" y1="0" x2="900" y2="0" gradientUnits="userSpaceOnUse">
    <stop offset="0%" stop-color="rgba(99,102,241,0)"/>
    <stop offset="25%" stop-color="rgba(99,102,241,0.22)"/>
    <stop offset="75%" stop-color="rgba(99,102,241,0.22)"/>
    <stop offset="100%" stop-color="rgba(99,102,241,0)"/>
  </linearGradient>
  <linearGradient id="grim" x1="0" y1="0" x2="900" y2="320" gradientUnits="userSpaceOnUse">
    <stop offset="0%" stop-color="rgba(99,102,241,0.28)"/>
    <stop offset="50%" stop-color="rgba(99,102,241,0.12)"/>
    <stop offset="100%" stop-color="rgba(129,140,248,0.24)"/>
  </linearGradient>
</defs>

<rect width="900" height="320" fill="url(#gbg)" rx="12"/>
<rect width="900" height="320" fill="none" stroke="url(#grim)" stroke-width="1" rx="12"/>
<ellipse cx="450" cy="-20" rx="420" ry="70" fill="rgba(99,102,241,0.06)"/>

<text x="24" y="27" font-size="14" font-weight="700" fill="#e8e8ff" font-family="system-ui,sans-serif" letter-spacing="0.3">VibeDeck</text>
<text x="876" y="27" text-anchor="end" font-size="10" fill="rgba(168,168,220,0.26)" font-family="system-ui,sans-serif">Updated May 14, 2026</text>

<line x1="24" y1="38" x2="876" y2="38" stroke="url(#gdiv)" stroke-width="0.75"/>

<text x="24" y="58" font-size="9" font-weight="600" fill="rgba(168,168,220,0.4)" font-family="system-ui,sans-serif" letter-spacing="1.4">TOTAL TOKENS</text>
<text x="268" y="58" font-size="9" font-weight="600" fill="rgba(168,168,220,0.4)" font-family="system-ui,sans-serif" letter-spacing="1.4">TOTAL COST</text>
<text x="472" y="58" font-size="9" font-weight="600" fill="rgba(168,168,220,0.4)" font-family="system-ui,sans-serif" letter-spacing="1.4">TOP MODELS</text>

<text x="24" y="91" font-size="21" font-weight="700" fill="url(#gtok)" font-family="'Courier New',Courier,monospace">2.8B</text>
<text x="24" y="114" font-size="11" fill="rgba(168,168,220,0.38)" font-family="system-ui,sans-serif">2,766,747,856 tokens total</text>

<text x="268" y="96" font-size="27" font-weight="700" fill="url(#gcost)" font-family="'Courier New',Courier,monospace">$1,944.38</text>
<text x="268" y="114" font-size="11" fill="rgba(168,168,220,0.38)" font-family="system-ui,sans-serif">all time spend</text>

<line x1="256" y1="48" x2="256" y2="130" stroke="rgba(99,102,241,0.18)" stroke-width="0.75"/>
<line x1="458" y1="48" x2="458" y2="130" stroke="rgba(99,102,241,0.18)" stroke-width="0.75"/>

<text x="472" y="73" font-size="10" fill="url(#gmodel)" font-family="system-ui,sans-serif">gpt-5.5</text>
<text x="700" y="73" text-anchor="end" font-size="10" fill="#a5b4fc" font-family="'Courier New',Courier,monospace">768.5M</text>
<text x="706" y="73" font-size="9" fill="rgba(168,168,220,0.45)" font-family="system-ui,sans-serif">28%</text>
<text x="472" y="89" font-size="10" fill="url(#gmodel)" font-family="system-ui,sans-serif">gpt-5.4</text>
<text x="700" y="89" text-anchor="end" font-size="10" fill="#a5b4fc" font-family="'Courier New',Courier,monospace">586.2M</text>
<text x="706" y="89" font-size="9" fill="rgba(168,168,220,0.45)" font-family="system-ui,sans-serif">21%</text>
<text x="472" y="105" font-size="10" fill="url(#gmodel)" font-family="system-ui,sans-serif">gpt-5.3-codex-spark</text>
<text x="700" y="105" text-anchor="end" font-size="10" fill="#a5b4fc" font-family="'Courier New',Courier,monospace">295.3M</text>
<text x="706" y="105" font-size="9" fill="rgba(168,168,220,0.45)" font-family="system-ui,sans-serif">11%</text>
<text x="472" y="121" font-size="10" fill="url(#gmodel)" font-family="system-ui,sans-serif">gpt-5.3-codex</text>
<text x="700" y="121" text-anchor="end" font-size="10" fill="#a5b4fc" font-family="'Courier New',Courier,monospace">248M</text>
<text x="706" y="121" font-size="9" fill="rgba(168,168,220,0.45)" font-family="system-ui,sans-serif">9%</text>

<line x1="24" y1="138" x2="876" y2="138" stroke="url(#gdiv)" stroke-width="0.75"/>
<text x="24" y="157" font-size="9" font-weight="600" fill="rgba(168,168,220,0.4)" font-family="system-ui,sans-serif" letter-spacing="1.4">ACTIVITY · PAST 52 WEEKS</text>

<text x="42" y="212" text-anchor="end" font-size="9" fill="rgba(168,168,220,0.36)" font-family="system-ui,sans-serif">Mon</text>
<text x="42" y="244" text-anchor="end" font-size="9" fill="rgba(168,168,220,0.36)" font-family="system-ui,sans-serif">Wed</text>
<text x="42" y="276" text-anchor="end" font-size="9" fill="rgba(168,168,220,0.36)" font-family="system-ui,sans-serif">Fri</text>
<text x="46" y="175" font-size="9" fill="rgba(168,168,220,0.36)" font-family="system-ui,sans-serif">May</text>
<text x="78" y="175" font-size="9" fill="rgba(168,168,220,0.36)" font-family="system-ui,sans-serif">Jun</text>
<text x="142" y="175" font-size="9" fill="rgba(168,168,220,0.36)" font-family="system-ui,sans-serif">Jul</text>
<text x="206" y="175" font-size="9" fill="rgba(168,168,220,0.36)" font-family="system-ui,sans-serif">Aug</text>
<text x="286" y="175" font-size="9" fill="rgba(168,168,220,0.36)" font-family="system-ui,sans-serif">Sep</text>
<text x="350" y="175" font-size="9" fill="rgba(168,168,220,0.36)" font-family="system-ui,sans-serif">Oct</text>
<text x="414" y="175" font-size="9" fill="rgba(168,168,220,0.36)" font-family="system-ui,sans-serif">Nov</text>
<text x="494" y="175" font-size="9" fill="rgba(168,168,220,0.36)" font-family="system-ui,sans-serif">Dec</text>
<text x="558" y="175" font-size="9" fill="rgba(168,168,220,0.36)" font-family="system-ui,sans-serif">Jan</text>
<text x="638" y="175" font-size="9" fill="rgba(168,168,220,0.36)" font-family="system-ui,sans-serif">Feb</text>
<text x="702" y="175" font-size="9" fill="rgba(168,168,220,0.36)" font-family="system-ui,sans-serif">Mar</text>
<text x="766" y="175" font-size="9" fill="rgba(168,168,220,0.36)" font-family="system-ui,sans-serif">Apr</text>
<text x="830" y="175" font-size="9" fill="rgba(168,168,220,0.36)" font-family="system-ui,sans-serif">May</text>
<rect x="46" y="184" width="13" height="13" rx="2" fill="#17162e"/>
<rect x="46" y="200" width="13" height="13" rx="2" fill="#17162e"/>
<rect x="46" y="216" width="13" height="13" rx="2" fill="#17162e"/>
<rect x="46" y="232" width="13" height="13" rx="2" fill="#17162e"/>
<rect x="46" y="248" width="13" height="13" rx="2" fill="#17162e"/>
<rect x="46" y="264" width="13" height="13" rx="2" fill="#17162e"/>
<rect x="46" y="280" width="13" height="13" rx="2" fill="#17162e"/>
<rect x="62" y="184" width="13" height="13" rx="2" fill="#17162e"/>
<rect x="62" y="200" width="13" height="13" rx="2" fill="#17162e"/>
<rect x="62" y="216" width="13" height="13" rx="2" fill="#17162e"/>
<rect x="62" y="232" width="13" height="13" rx="2" fill="#17162e"/>
<rect x="62" y="248" width="13" height="13" rx="2" fill="#17162e"/>
<rect x="62" y="264" width="13" height="13" rx="2" fill="#17162e"/>
<rect x="62" y="280" width="13" height="13" rx="2" fill="#17162e"/>
<rect x="78" y="184" width="13" height="13" rx="2" fill="#17162e"/>
<rect x="78" y="200" width="13" height="13" rx="2" fill="#17162e"/>
<rect x="78" y="216" width="13" height="13" rx="2" fill="#17162e"/>
<rect x="78" y="232" width="13" height="13" rx="2" fill="#17162e"/>
<rect x="78" y="248" width="13" height="13" rx="2" fill="#17162e"/>
<rect x="78" y="264" width="13" height="13" rx="2" fill="#17162e"/>
<rect x="78" y="280" width="13" height="13" rx="2" fill="#17162e"/>
<rect x="94" y="184" width="13" height="13" rx="2" fill="#17162e"/>
<rect x="94" y="200" width="13" height="13" rx="2" fill="#17162e"/>
<rect x="94" y="216" width="13" height="13" rx="2" fill="#17162e"/>
<rect x="94" y="232" width="13" height="13" rx="2" fill="#17162e"/>
<rect x="94" y="248" width="13" height="13" rx="2" fill="#17162e"/>
<rect x="94" y="264" width="13" height="13" rx="2" fill="#17162e"/>
<rect x="94" y="280" width="13" height="13" rx="2" fill="#17162e"/>
<rect x="110" y="184" width="13" height="13" rx="2" fill="#17162e"/>
<rect x="110" y="200" width="13" height="13" rx="2" fill="#17162e"/>
<rect x="110" y="216" width="13" height="13" rx="2" fill="#17162e"/>
<rect x="110" y="232" width="13" height="13" rx="2" fill="#17162e"/>
<rect x="110" y="248" width="13" height="13" rx="2" fill="#17162e"/>
<rect x="110" y="264" width="13" height="13" rx="2" fill="#17162e"/>
<rect x="110" y="280" width="13" height="13" rx="2" fill="#17162e"/>
<rect x="126" y="184" width="13" height="13" rx="2" fill="#17162e"/>
<rect x="126" y="200" width="13" height="13" rx="2" fill="#17162e"/>
<rect x="126" y="216" width="13" height="13" rx="2" fill="#17162e"/>
<rect x="126" y="232" width="13" height="13" rx="2" fill="#17162e"/>
<rect x="126" y="248" width="13" height="13" rx="2" fill="#17162e"/>
<rect x="126" y="264" width="13" height="13" rx="2" fill="#17162e"/>
<rect x="126" y="280" width="13" height="13" rx="2" fill="#17162e"/>
<rect x="142" y="184" width="13" height="13" rx="2" fill="#17162e"/>
<rect x="142" y="200" width="13" height="13" rx="2" fill="#17162e"/>
<rect x="142" y="216" width="13" height="13" rx="2" fill="#17162e"/>
<rect x="142" y="232" width="13" height="13" rx="2" fill="#17162e"/>
<rect x="142" y="248" width="13" height="13" rx="2" fill="#17162e"/>
<rect x="142" y="264" width="13" height="13" rx="2" fill="#17162e"/>
<rect x="142" y="280" width="13" height="13" rx="2" fill="#17162e"/>
<rect x="158" y="184" width="13" height="13" rx="2" fill="#17162e"/>
<rect x="158" y="200" width="13" height="13" rx="2" fill="#17162e"/>
<rect x="158" y="216" width="13" height="13" rx="2" fill="#17162e"/>
<rect x="158" y="232" width="13" height="13" rx="2" fill="#17162e"/>
<rect x="158" y="248" width="13" height="13" rx="2" fill="#17162e"/>
<rect x="158" y="264" width="13" height="13" rx="2" fill="#17162e"/>
<rect x="158" y="280" width="13" height="13" rx="2" fill="#17162e"/>
<rect x="174" y="184" width="13" height="13" rx="2" fill="#17162e"/>
<rect x="174" y="200" width="13" height="13" rx="2" fill="#17162e"/>
<rect x="174" y="216" width="13" height="13" rx="2" fill="#17162e"/>
<rect x="174" y="232" width="13" height="13" rx="2" fill="#17162e"/>
<rect x="174" y="248" width="13" height="13" rx="2" fill="#17162e"/>
<rect x="174" y="264" width="13" height="13" rx="2" fill="#17162e"/>
<rect x="174" y="280" width="13" height="13" rx="2" fill="#17162e"/>
<rect x="190" y="184" width="13" height="13" rx="2" fill="#17162e"/>
<rect x="190" y="200" width="13" height="13" rx="2" fill="#17162e"/>
<rect x="190" y="216" width="13" height="13" rx="2" fill="#17162e"/>
<rect x="190" y="232" width="13" height="13" rx="2" fill="#17162e"/>
<rect x="190" y="248" width="13" height="13" rx="2" fill="#17162e"/>
<rect x="190" y="264" width="13" height="13" rx="2" fill="#17162e"/>
<rect x="190" y="280" width="13" height="13" rx="2" fill="#17162e"/>
<rect x="206" y="184" width="13" height="13" rx="2" fill="#17162e"/>
<rect x="206" y="200" width="13" height="13" rx="2" fill="#17162e"/>
<rect x="206" y="216" width="13" height="13" rx="2" fill="#17162e"/>
<rect x="206" y="232" width="13" height="13" rx="2" fill="#17162e"/>
<rect x="206" y="248" width="13" height="13" rx="2" fill="#17162e"/>
<rect x="206" y="264" width="13" height="13" rx="2" fill="#17162e"/>
<rect x="206" y="280" width="13" height="13" rx="2" fill="#17162e"/>
<rect x="222" y="184" width="13" height="13" rx="2" fill="#17162e"/>
<rect x="222" y="200" width="13" height="13" rx="2" fill="#17162e"/>
<rect x="222" y="216" width="13" height="13" rx="2" fill="#17162e"/>
<rect x="222" y="232" width="13" height="13" rx="2" fill="#17162e"/>
<rect x="222" y="248" width="13" height="13" rx="2" fill="#17162e"/>
<rect x="222" y="264" width="13" height="13" rx="2" fill="#17162e"/>
<rect x="222" y="280" width="13" height="13" rx="2" fill="#17162e"/>
<rect x="238" y="184" width="13" height="13" rx="2" fill="#17162e"/>
<rect x="238" y="200" width="13" height="13" rx="2" fill="#17162e"/>
<rect x="238" y="216" width="13" height="13" rx="2" fill="#17162e"/>
<rect x="238" y="232" width="13" height="13" rx="2" fill="#17162e"/>
<rect x="238" y="248" width="13" height="13" rx="2" fill="#17162e"/>
<rect x="238" y="264" width="13" height="13" rx="2" fill="#17162e"/>
<rect x="238" y="280" width="13" height="13" rx="2" fill="#17162e"/>
<rect x="254" y="184" width="13" height="13" rx="2" fill="#17162e"/>
<rect x="254" y="200" width="13" height="13" rx="2" fill="#17162e"/>
<rect x="254" y="216" width="13" height="13" rx="2" fill="#17162e"/>
<rect x="254" y="232" width="13" height="13" rx="2" fill="#17162e"/>
<rect x="254" y="248" width="13" height="13" rx="2" fill="#17162e"/>
<rect x="254" y="264" width="13" height="13" rx="2" fill="#17162e"/>
<rect x="254" y="280" width="13" height="13" rx="2" fill="#17162e"/>
<rect x="270" y="184" width="13" height="13" rx="2" fill="#17162e"/>
<rect x="270" y="200" width="13" height="13" rx="2" fill="#17162e"/>
<rect x="270" y="216" width="13" height="13" rx="2" fill="#17162e"/>
<rect x="270" y="232" width="13" height="13" rx="2" fill="#17162e"/>
<rect x="270" y="248" width="13" height="13" rx="2" fill="#17162e"/>
<rect x="270" y="264" width="13" height="13" rx="2" fill="#17162e"/>
<rect x="270" y="280" width="13" height="13" rx="2" fill="#17162e"/>
<rect x="286" y="184" width="13" height="13" rx="2" fill="#17162e"/>
<rect x="286" y="200" width="13" height="13" rx="2" fill="#17162e"/>
<rect x="286" y="216" width="13" height="13" rx="2" fill="#17162e"/>
<rect x="286" y="232" width="13" height="13" rx="2" fill="#17162e"/>
<rect x="286" y="248" width="13" height="13" rx="2" fill="#17162e"/>
<rect x="286" y="264" width="13" height="13" rx="2" fill="#17162e"/>
<rect x="286" y="280" width="13" height="13" rx="2" fill="#17162e"/>
<rect x="302" y="184" width="13" height="13" rx="2" fill="#17162e"/>
<rect x="302" y="200" width="13" height="13" rx="2" fill="#17162e"/>
<rect x="302" y="216" width="13" height="13" rx="2" fill="#17162e"/>
<rect x="302" y="232" width="13" height="13" rx="2" fill="#17162e"/>
<rect x="302" y="248" width="13" height="13" rx="2" fill="#17162e"/>
<rect x="302" y="264" width="13" height="13" rx="2" fill="#17162e"/>
<rect x="302" y="280" width="13" height="13" rx="2" fill="#17162e"/>
<rect x="318" y="184" width="13" height="13" rx="2" fill="#17162e"/>
<rect x="318" y="200" width="13" height="13" rx="2" fill="#17162e"/>
<rect x="318" y="216" width="13" height="13" rx="2" fill="#17162e"/>
<rect x="318" y="232" width="13" height="13" rx="2" fill="#17162e"/>
<rect x="318" y="248" width="13" height="13" rx="2" fill="#17162e"/>
<rect x="318" y="264" width="13" height="13" rx="2" fill="#17162e"/>
<rect x="318" y="280" width="13" height="13" rx="2" fill="#17162e"/>
<rect x="334" y="184" width="13" height="13" rx="2" fill="#17162e"/>
<rect x="334" y="200" width="13" height="13" rx="2" fill="#17162e"/>
<rect x="334" y="216" width="13" height="13" rx="2" fill="#17162e"/>
<rect x="334" y="232" width="13" height="13" rx="2" fill="#17162e"/>
<rect x="334" y="248" width="13" height="13" rx="2" fill="#17162e"/>
<rect x="334" y="264" width="13" height="13" rx="2" fill="#17162e"/>
<rect x="334" y="280" width="13" height="13" rx="2" fill="#17162e"/>
<rect x="350" y="184" width="13" height="13" rx="2" fill="#17162e"/>
<rect x="350" y="200" width="13" height="13" rx="2" fill="#17162e"/>
<rect x="350" y="216" width="13" height="13" rx="2" fill="#17162e"/>
<rect x="350" y="232" width="13" height="13" rx="2" fill="#17162e"/>
<rect x="350" y="248" width="13" height="13" rx="2" fill="#17162e"/>
<rect x="350" y="264" width="13" height="13" rx="2" fill="#17162e"/>
<rect x="350" y="280" width="13" height="13" rx="2" fill="#17162e"/>
<rect x="366" y="184" width="13" height="13" rx="2" fill="#17162e"/>
<rect x="366" y="200" width="13" height="13" rx="2" fill="#17162e"/>
<rect x="366" y="216" width="13" height="13" rx="2" fill="#17162e"/>
<rect x="366" y="232" width="13" height="13" rx="2" fill="#17162e"/>
<rect x="366" y="248" width="13" height="13" rx="2" fill="#17162e"/>
<rect x="366" y="264" width="13" height="13" rx="2" fill="#17162e"/>
<rect x="366" y="280" width="13" height="13" rx="2" fill="#17162e"/>
<rect x="382" y="184" width="13" height="13" rx="2" fill="#17162e"/>
<rect x="382" y="200" width="13" height="13" rx="2" fill="#17162e"/>
<rect x="382" y="216" width="13" height="13" rx="2" fill="#17162e"/>
<rect x="382" y="232" width="13" height="13" rx="2" fill="#17162e"/>
<rect x="382" y="248" width="13" height="13" rx="2" fill="#17162e"/>
<rect x="382" y="264" width="13" height="13" rx="2" fill="#17162e"/>
<rect x="382" y="280" width="13" height="13" rx="2" fill="#17162e"/>
<rect x="398" y="184" width="13" height="13" rx="2" fill="#17162e"/>
<rect x="398" y="200" width="13" height="13" rx="2" fill="#17162e"/>
<rect x="398" y="216" width="13" height="13" rx="2" fill="#17162e"/>
<rect x="398" y="232" width="13" height="13" rx="2" fill="#17162e"/>
<rect x="398" y="248" width="13" height="13" rx="2" fill="#17162e"/>
<rect x="398" y="264" width="13" height="13" rx="2" fill="#17162e"/>
<rect x="398" y="280" width="13" height="13" rx="2" fill="#17162e"/>
<rect x="414" y="184" width="13" height="13" rx="2" fill="#17162e"/>
<rect x="414" y="200" width="13" height="13" rx="2" fill="#17162e"/>
<rect x="414" y="216" width="13" height="13" rx="2" fill="#17162e"/>
<rect x="414" y="232" width="13" height="13" rx="2" fill="#17162e"/>
<rect x="414" y="248" width="13" height="13" rx="2" fill="#17162e"/>
<rect x="414" y="264" width="13" height="13" rx="2" fill="#17162e"/>
<rect x="414" y="280" width="13" height="13" rx="2" fill="#17162e"/>
<rect x="430" y="184" width="13" height="13" rx="2" fill="#17162e"/>
<rect x="430" y="200" width="13" height="13" rx="2" fill="#17162e"/>
<rect x="430" y="216" width="13" height="13" rx="2" fill="#17162e"/>
<rect x="430" y="232" width="13" height="13" rx="2" fill="#17162e"/>
<rect x="430" y="248" width="13" height="13" rx="2" fill="#17162e"/>
<rect x="430" y="264" width="13" height="13" rx="2" fill="#17162e"/>
<rect x="430" y="280" width="13" height="13" rx="2" fill="#17162e"/>
<rect x="446" y="184" width="13" height="13" rx="2" fill="#17162e"/>
<rect x="446" y="200" width="13" height="13" rx="2" fill="#17162e"/>
<rect x="446" y="216" width="13" height="13" rx="2" fill="#17162e"/>
<rect x="446" y="232" width="13" height="13" rx="2" fill="#17162e"/>
<rect x="446" y="248" width="13" height="13" rx="2" fill="#17162e"/>
<rect x="446" y="264" width="13" height="13" rx="2" fill="#17162e"/>
<rect x="446" y="280" width="13" height="13" rx="2" fill="#17162e"/>
<rect x="462" y="184" width="13" height="13" rx="2" fill="#17162e"/>
<rect x="462" y="200" width="13" height="13" rx="2" fill="#17162e"/>
<rect x="462" y="216" width="13" height="13" rx="2" fill="#17162e"/>
<rect x="462" y="232" width="13" height="13" rx="2" fill="#17162e"/>
<rect x="462" y="248" width="13" height="13" rx="2" fill="#17162e"/>
<rect x="462" y="264" width="13" height="13" rx="2" fill="#17162e"/>
<rect x="462" y="280" width="13" height="13" rx="2" fill="#17162e"/>
<rect x="478" y="184" width="13" height="13" rx="2" fill="#17162e"/>
<rect x="478" y="200" width="13" height="13" rx="2" fill="#17162e"/>
<rect x="478" y="216" width="13" height="13" rx="2" fill="#17162e"/>
<rect x="478" y="232" width="13" height="13" rx="2" fill="#17162e"/>
<rect x="478" y="248" width="13" height="13" rx="2" fill="#17162e"/>
<rect x="478" y="264" width="13" height="13" rx="2" fill="#17162e"/>
<rect x="478" y="280" width="13" height="13" rx="2" fill="#17162e"/>
<rect x="494" y="184" width="13" height="13" rx="2" fill="#17162e"/>
<rect x="494" y="200" width="13" height="13" rx="2" fill="#17162e"/>
<rect x="494" y="216" width="13" height="13" rx="2" fill="#17162e"/>
<rect x="494" y="232" width="13" height="13" rx="2" fill="#17162e"/>
<rect x="494" y="248" width="13" height="13" rx="2" fill="#17162e"/>
<rect x="494" y="264" width="13" height="13" rx="2" fill="#17162e"/>
<rect x="494" y="280" width="13" height="13" rx="2" fill="#17162e"/>
<rect x="510" y="184" width="13" height="13" rx="2" fill="#17162e"/>
<rect x="510" y="200" width="13" height="13" rx="2" fill="#17162e"/>
<rect x="510" y="216" width="13" height="13" rx="2" fill="#17162e"/>
<rect x="510" y="232" width="13" height="13" rx="2" fill="#17162e"/>
<rect x="510" y="248" width="13" height="13" rx="2" fill="#17162e"/>
<rect x="510" y="264" width="13" height="13" rx="2" fill="#17162e"/>
<rect x="510" y="280" width="13" height="13" rx="2" fill="#17162e"/>
<rect x="526" y="184" width="13" height="13" rx="2" fill="#17162e"/>
<rect x="526" y="200" width="13" height="13" rx="2" fill="#17162e"/>
<rect x="526" y="216" width="13" height="13" rx="2" fill="#17162e"/>
<rect x="526" y="232" width="13" height="13" rx="2" fill="#17162e"/>
<rect x="526" y="248" width="13" height="13" rx="2" fill="#17162e"/>
<rect x="526" y="264" width="13" height="13" rx="2" fill="#17162e"/>
<rect x="526" y="280" width="13" height="13" rx="2" fill="#17162e"/>
<rect x="542" y="184" width="13" height="13" rx="2" fill="#17162e"/>
<rect x="542" y="200" width="13" height="13" rx="2" fill="#17162e"/>
<rect x="542" y="216" width="13" height="13" rx="2" fill="#17162e"/>
<rect x="542" y="232" width="13" height="13" rx="2" fill="#17162e"/>
<rect x="542" y="248" width="13" height="13" rx="2" fill="#17162e"/>
<rect x="542" y="264" width="13" height="13" rx="2" fill="#17162e"/>
<rect x="542" y="280" width="13" height="13" rx="2" fill="#17162e"/>
<rect x="558" y="184" width="13" height="13" rx="2" fill="#17162e"/>
<rect x="558" y="200" width="13" height="13" rx="2" fill="#17162e"/>
<rect x="558" y="216" width="13" height="13" rx="2" fill="#17162e"/>
<rect x="558" y="232" width="13" height="13" rx="2" fill="#17162e"/>
<rect x="558" y="248" width="13" height="13" rx="2" fill="#17162e"/>
<rect x="558" y="264" width="13" height="13" rx="2" fill="#17162e"/>
<rect x="558" y="280" width="13" height="13" rx="2" fill="#17162e"/>
<rect x="574" y="184" width="13" height="13" rx="2" fill="#17162e"/>
<rect x="574" y="200" width="13" height="13" rx="2" fill="#17162e"/>
<rect x="574" y="216" width="13" height="13" rx="2" fill="#17162e"/>
<rect x="574" y="232" width="13" height="13" rx="2" fill="#17162e"/>
<rect x="574" y="248" width="13" height="13" rx="2" fill="#17162e"/>
<rect x="574" y="264" width="13" height="13" rx="2" fill="#17162e"/>
<rect x="574" y="280" width="13" height="13" rx="2" fill="#17162e"/>
<rect x="590" y="184" width="13" height="13" rx="2" fill="#17162e"/>
<rect x="590" y="200" width="13" height="13" rx="2" fill="#17162e"/>
<rect x="590" y="216" width="13" height="13" rx="2" fill="#17162e"/>
<rect x="590" y="232" width="13" height="13" rx="2" fill="#17162e"/>
<rect x="590" y="248" width="13" height="13" rx="2" fill="#17162e"/>
<rect x="590" y="264" width="13" height="13" rx="2" fill="#17162e"/>
<rect x="590" y="280" width="13" height="13" rx="2" fill="#17162e"/>
<rect x="606" y="184" width="13" height="13" rx="2" fill="#17162e"/>
<rect x="606" y="200" width="13" height="13" rx="2" fill="#17162e"/>
<rect x="606" y="216" width="13" height="13" rx="2" fill="#17162e"/>
<rect x="606" y="232" width="13" height="13" rx="2" fill="#17162e"/>
<rect x="606" y="248" width="13" height="13" rx="2" fill="#17162e"/>
<rect x="606" y="264" width="13" height="13" rx="2" fill="#17162e"/>
<rect x="606" y="280" width="13" height="13" rx="2" fill="#17162e"/>
<rect x="622" y="184" width="13" height="13" rx="2" fill="#17162e"/>
<rect x="622" y="200" width="13" height="13" rx="2" fill="#17162e"/>
<rect x="622" y="216" width="13" height="13" rx="2" fill="#17162e"/>
<rect x="622" y="232" width="13" height="13" rx="2" fill="#17162e"/>
<rect x="622" y="248" width="13" height="13" rx="2" fill="#17162e"/>
<rect x="622" y="264" width="13" height="13" rx="2" fill="#17162e"/>
<rect x="622" y="280" width="13" height="13" rx="2" fill="#17162e"/>
<rect x="638" y="184" width="13" height="13" rx="2" fill="#17162e"/>
<rect x="638" y="200" width="13" height="13" rx="2" fill="#17162e"/>
<rect x="638" y="216" width="13" height="13" rx="2" fill="#17162e"/>
<rect x="638" y="232" width="13" height="13" rx="2" fill="#17162e"/>
<rect x="638" y="248" width="13" height="13" rx="2" fill="#17162e"/>
<rect x="638" y="264" width="13" height="13" rx="2" fill="#17162e"/>
<rect x="638" y="280" width="13" height="13" rx="2" fill="#17162e"/>
<rect x="654" y="184" width="13" height="13" rx="2" fill="#17162e"/>
<rect x="654" y="200" width="13" height="13" rx="2" fill="#17162e"/>
<rect x="654" y="216" width="13" height="13" rx="2" fill="#17162e"/>
<rect x="654" y="232" width="13" height="13" rx="2" fill="#17162e"/>
<rect x="654" y="248" width="13" height="13" rx="2" fill="#17162e"/>
<rect x="654" y="264" width="13" height="13" rx="2" fill="#17162e"/>
<rect x="654" y="280" width="13" height="13" rx="2" fill="#17162e"/>
<rect x="670" y="184" width="13" height="13" rx="2" fill="#17162e"/>
<rect x="670" y="200" width="13" height="13" rx="2" fill="#17162e"/>
<rect x="670" y="216" width="13" height="13" rx="2" fill="#17162e"/>
<rect x="670" y="232" width="13" height="13" rx="2" fill="#17162e"/>
<rect x="670" y="248" width="13" height="13" rx="2" fill="#17162e"/>
<rect x="670" y="264" width="13" height="13" rx="2" fill="#17162e"/>
<rect x="670" y="280" width="13" height="13" rx="2" fill="#17162e"/>
<rect x="686" y="184" width="13" height="13" rx="2" fill="#17162e"/>
<rect x="686" y="200" width="13" height="13" rx="2" fill="#17162e"/>
<rect x="686" y="216" width="13" height="13" rx="2" fill="#17162e"/>
<rect x="686" y="232" width="13" height="13" rx="2" fill="#17162e"/>
<rect x="686" y="248" width="13" height="13" rx="2" fill="#17162e"/>
<rect x="686" y="264" width="13" height="13" rx="2" fill="#17162e"/>
<rect x="686" y="280" width="13" height="13" rx="2" fill="#17162e"/>
<rect x="702" y="184" width="13" height="13" rx="2" fill="#17162e"/>
<rect x="702" y="200" width="13" height="13" rx="2" fill="#17162e"/>
<rect x="702" y="216" width="13" height="13" rx="2" fill="#17162e"/>
<rect x="702" y="232" width="13" height="13" rx="2" fill="#17162e"/>
<rect x="702" y="248" width="13" height="13" rx="2" fill="#17162e"/>
<rect x="702" y="264" width="13" height="13" rx="2" fill="#17162e"/>
<rect x="702" y="280" width="13" height="13" rx="2" fill="#17162e"/>
<rect x="718" y="184" width="13" height="13" rx="2" fill="#17162e"/>
<rect x="718" y="200" width="13" height="13" rx="2" fill="#17162e"/>
<rect x="718" y="216" width="13" height="13" rx="2" fill="#17162e"/>
<rect x="718" y="232" width="13" height="13" rx="2" fill="#17162e"/>
<rect x="718" y="248" width="13" height="13" rx="2" fill="#17162e"/>
<rect x="718" y="264" width="13" height="13" rx="2" fill="#17162e"/>
<rect x="718" y="280" width="13" height="13" rx="2" fill="#17162e"/>
<rect x="734" y="184" width="13" height="13" rx="2" fill="#17162e"/>
<rect x="734" y="200" width="13" height="13" rx="2" fill="#2a2750"/>
<rect x="734" y="216" width="13" height="13" rx="2" fill="#2a2750"/>
<rect x="734" y="232" width="13" height="13" rx="2" fill="#2a2750"/>
<rect x="734" y="248" width="13" height="13" rx="2" fill="#17162e"/>
<rect x="734" y="264" width="13" height="13" rx="2" fill="#17162e"/>
<rect x="734" y="280" width="13" height="13" rx="2" fill="#17162e"/>
<rect x="750" y="184" width="13" height="13" rx="2" fill="#17162e"/>
<rect x="750" y="200" width="13" height="13" rx="2" fill="#2a2750"/>
<rect x="750" y="216" width="13" height="13" rx="2" fill="#17162e"/>
<rect x="750" y="232" width="13" height="13" rx="2" fill="#17162e"/>
<rect x="750" y="248" width="13" height="13" rx="2" fill="#17162e"/>
<rect x="750" y="264" width="13" height="13" rx="2" fill="#17162e"/>
<rect x="750" y="280" width="13" height="13" rx="2" fill="#17162e"/>
<rect x="766" y="184" width="13" height="13" rx="2" fill="#17162e"/>
<rect x="766" y="200" width="13" height="13" rx="2" fill="#17162e"/>
<rect x="766" y="216" width="13" height="13" rx="2" fill="#17162e"/>
<rect x="766" y="232" width="13" height="13" rx="2" fill="#17162e"/>
<rect x="766" y="248" width="13" height="13" rx="2" fill="#17162e"/>
<rect x="766" y="264" width="13" height="13" rx="2" fill="#2a2750"/>
<rect x="766" y="280" width="13" height="13" rx="2" fill="#2a2750"/>
<rect x="782" y="184" width="13" height="13" rx="2" fill="#17162e"/>
<rect x="782" y="200" width="13" height="13" rx="2" fill="#17162e"/>
<rect x="782" y="216" width="13" height="13" rx="2" fill="#17162e"/>
<rect x="782" y="232" width="13" height="13" rx="2" fill="#17162e"/>
<rect x="782" y="248" width="13" height="13" rx="2" fill="#403f7f"/>
<rect x="782" y="264" width="13" height="13" rx="2" fill="#2a2750"/>
<rect x="782" y="280" width="13" height="13" rx="2" fill="#403f7f"/>
<rect x="798" y="184" width="13" height="13" rx="2" fill="#2a2750"/>
<rect x="798" y="200" width="13" height="13" rx="2" fill="#5757c8"/>
<rect x="798" y="216" width="13" height="13" rx="2" fill="#2a2750"/>
<rect x="798" y="232" width="13" height="13" rx="2" fill="#2a2750"/>
<rect x="798" y="248" width="13" height="13" rx="2" fill="#2a2750"/>
<rect x="798" y="264" width="13" height="13" rx="2" fill="#5757c8"/>
<rect x="798" y="280" width="13" height="13" rx="2" fill="#5757c8"/>
<rect x="814" y="184" width="13" height="13" rx="2" fill="#403f7f"/>
<rect x="814" y="200" width="13" height="13" rx="2" fill="#2a2750"/>
<rect x="814" y="216" width="13" height="13" rx="2" fill="#17162e"/>
<rect x="814" y="232" width="13" height="13" rx="2" fill="#17162e"/>
<rect x="814" y="248" width="13" height="13" rx="2" fill="#17162e"/>
<rect x="814" y="264" width="13" height="13" rx="2" fill="#17162e"/>
<rect x="814" y="280" width="13" height="13" rx="2" fill="#17162e"/>
<rect x="830" y="184" width="13" height="13" rx="2" fill="#17162e"/>
<rect x="830" y="200" width="13" height="13" rx="2" fill="#17162e"/>
<rect x="830" y="216" width="13" height="13" rx="2" fill="#17162e"/>
<rect x="830" y="232" width="13" height="13" rx="2" fill="#2a2750"/>
<rect x="830" y="248" width="13" height="13" rx="2" fill="#2a2750"/>
<rect x="830" y="264" width="13" height="13" rx="2" fill="#2a2750"/>
<rect x="830" y="280" width="13" height="13" rx="2" fill="#17162e"/>
<rect x="846" y="184" width="13" height="13" rx="2" fill="#17162e"/>
<rect x="846" y="200" width="13" height="13" rx="2" fill="#403f7f"/>
<rect x="846" y="216" width="13" height="13" rx="2" fill="#403f7f"/>
<rect x="846" y="232" width="13" height="13" rx="2" fill="#2a2750"/>
<rect x="846" y="248" width="13" height="13" rx="2" fill="#5757c8"/>
<rect x="846" y="264" width="13" height="13" rx="2" fill="#403f7f"/>
<rect x="846" y="280" width="13" height="13" rx="2" fill="#7f7fff"/>
<rect x="862" y="184" width="13" height="13" rx="2" fill="#7f7fff"/>
<rect x="862" y="200" width="13" height="13" rx="2" fill="#7f7fff"/>
<rect x="862" y="216" width="13" height="13" rx="2" fill="#5757c8"/>
<rect x="862" y="232" width="13" height="13" rx="2" fill="#403f7f"/>
<rect x="862" y="248" width="13" height="13" rx="2" fill="#17162e"/>
<rect x="862" y="264" width="13" height="13" rx="2" fill="#17162e"/>
<rect x="862" y="280" width="13" height="13" rx="2" fill="#17162e"/>
<text x="46" y="307" font-size="8" fill="rgba(168,168,220,0.36)" font-family="system-ui,sans-serif">Less</text>
<rect x="76" y="297" width="9" height="9" rx="1" fill="#17162e"/>
<rect x="88" y="297" width="9" height="9" rx="1" fill="#2a2750"/>
<rect x="100" y="297" width="9" height="9" rx="1" fill="#403f7f"/>
<rect x="112" y="297" width="9" height="9" rx="1" fill="#5757c8"/>
<rect x="124" y="297" width="9" height="9" rx="1" fill="#7f7fff"/>
<text x="138" y="307" font-size="8" fill="rgba(168,168,220,0.36)" font-family="system-ui,sans-serif">More</text>
</svg>
